<svg width="34" height="34" viewBox="0 0 34 34" fill="none" xmlns="http://www.w3.org/2000/svg">
<path d="M22.3124 17C22.3124 18.4089 21.7527 19.7602 20.7564 20.7564C19.7602 21.7527 18.4089 22.3124 17 22.3124C15.591 22.3124 14.2397 21.7527 13.2435 20.7564C12.2472 19.7602 11.6875 18.4089 11.6875 17C11.6875 16.6971 11.7193 16.4014 11.7742 16.1145H9.91664V23.1925C9.91664 23.6848 10.3151 24.0833 10.8074 24.0833H23.1943C23.4302 24.0828 23.6563 23.9887 23.823 23.8218C23.9897 23.6548 24.0833 23.4285 24.0833 23.1925V16.1145H22.2257C22.2806 16.4014 22.3124 16.6971 22.3124 17ZM17 20.5416C17.4652 20.5415 17.9258 20.4497 18.3556 20.2716C18.7853 20.0935 19.1758 19.8324 19.5047 19.5034C19.8335 19.1744 20.0944 18.7838 20.2723 18.3539C20.4502 17.9241 20.5417 17.4634 20.5416 16.9982C20.5415 16.533 20.4497 16.0723 20.2716 15.6426C20.0935 15.2128 19.8324 14.8224 19.5034 14.4935C19.1744 14.1646 18.7838 13.9038 18.3539 13.7258C17.9241 13.5479 17.4634 13.4564 16.9982 13.4565C16.0586 13.4568 15.1577 13.8302 14.4935 14.4947C13.8293 15.1593 13.4563 16.0604 13.4565 17C13.4568 17.9395 13.8302 18.8405 14.4947 19.5047C15.1593 20.1688 16.0604 20.5418 17 20.5416ZM21.2499 13.2812H23.3732C23.5142 13.2812 23.6495 13.2253 23.7494 13.1257C23.8494 13.0261 23.9057 12.891 23.9062 12.75V10.6267C23.9062 10.4854 23.85 10.3498 23.7501 10.2498C23.6501 10.1499 23.5145 10.0937 23.3732 10.0937H21.2499C21.1086 10.0937 20.973 10.1499 20.873 10.2498C20.7731 10.3498 20.7169 10.4854 20.7169 10.6267V12.75C20.7187 13.0422 20.9578 13.2812 21.2499 13.2812ZM17 0C12.4913 0 8.16728 1.79106 4.97917 4.97917C1.79106 8.16728 0 12.4913 0 17C0 21.5086 1.79106 25.8326 4.97917 29.0207C8.16728 32.2088 12.4913 33.9999 17 33.9999C19.2324 33.9999 21.443 33.5602 23.5056 32.7059C25.5681 31.8515 27.4421 30.5993 29.0207 29.0207C30.5993 27.4421 31.8515 25.5681 32.7059 23.5056C33.5602 21.443 33.9999 19.2324 33.9999 17C33.9999 14.7675 33.5602 12.5569 32.7059 10.4944C31.8515 8.43182 30.5993 6.55776 29.0207 4.97917C27.4421 3.40058 25.5681 2.14837 23.5056 1.29404C21.443 0.439717 19.2324 0 17 0ZM25.8541 23.8867C25.8541 24.9687 24.9687 25.8541 23.8867 25.8541H10.1132C9.03122 25.8541 8.14581 24.9687 8.14581 23.8867V10.1132C8.14581 9.03122 9.03122 8.14581 10.1132 8.14581H23.8867C24.9687 8.14581 25.8541 9.03122 25.8541 10.1132V23.8867Z" fill="white"/>
</svg>
