<svg width="34" height="34" viewBox="0 0 34 34" fill="none" xmlns="http://www.w3.org/2000/svg">
<path d="M17 0C7.61102 0 0 7.61102 0 17C0 26.3889 7.61102 33.9999 17 33.9999C26.3889 33.9999 33.9999 26.3889 33.9999 17C33.9999 7.61102 26.3889 0 17 0ZM23.915 13.9258C23.9221 14.071 23.9239 14.2162 23.9239 14.3579C23.9239 18.7849 20.5575 23.8867 14.3986 23.8867C12.5787 23.8897 10.7967 23.3671 9.26674 22.3815C9.52706 22.4134 9.79445 22.4258 10.0654 22.4258C11.6343 22.4258 13.0776 21.8928 14.2233 20.9932C13.5251 20.9795 12.8485 20.7483 12.288 20.3318C11.7274 19.9153 11.3107 19.3344 11.096 18.6698C11.5974 18.7652 12.114 18.7452 12.6065 18.6114C11.8487 18.4582 11.1672 18.0475 10.6776 17.4491C10.188 16.8508 9.92037 16.1015 9.92018 15.3283V15.2876C10.3717 15.5372 10.8888 15.6895 11.4378 15.7072C10.7273 15.2343 10.2244 14.5078 10.0318 13.6763C9.83926 12.8449 9.97163 11.9712 10.4018 11.2341C11.2429 12.2683 12.2918 13.1143 13.4806 13.7174C14.6693 14.3205 15.9715 14.6672 17.3028 14.7351C17.1335 14.0167 17.2064 13.2625 17.51 12.5897C17.8136 11.917 18.3309 11.3634 18.9816 11.015C19.6323 10.6667 20.3799 10.543 21.1081 10.6633C21.8363 10.7837 22.5043 11.1412 23.0084 11.6804C23.7577 11.5321 24.4764 11.2573 25.1334 10.8676C24.8836 11.6434 24.3607 12.3023 23.6618 12.7216C24.3256 12.6417 24.9738 12.4632 25.5849 12.1922C25.136 12.8649 24.5705 13.452 23.915 13.9258Z" fill="white"/>
</svg>
