<svg width="135" height="184" viewBox="0 0 135 184" fill="none" xmlns="http://www.w3.org/2000/svg">
<rect x="132.105" y="63.4254" width="126.941" height="10.3982" transform="rotate(117.371 132.105 63.4254)" fill="#E0E0E0"/>
<rect x="42.4227" y="168.31" width="58.6909" height="15.6897" rx="3.09701" fill="#30235B"/>
<rect x="125.389" y="64.4442" width="68.1845" height="10.3982" transform="rotate(-139.766 125.389 64.4442)" fill="#E0E0E0"/>
<rect x="74.4436" y="15.8736" width="20.1174" height="3.58173" transform="rotate(162.128 74.4436 15.8736)" fill="#E0E0E0"/>
<circle cx="127.716" cy="60.2571" r="7.26405" fill="#30235B"/>
<path d="M69.9009 10.625L80.0776 12.5142L73.3532 20.3829L69.9009 10.625Z" fill="#30235B"/>
<path d="M38.2052 7.23367C40.5493 1.34571 47.2227 -1.5272 53.1106 0.816863C58.9986 3.16092 61.8715 9.83429 59.5274 15.7222L53.0459 32.003L31.7237 23.5144L38.2052 7.23367Z" fill="#30235B"/>
<path d="M44.966 23.8451C21.3026 14.5535 5.55907 35.3678 -1.1363e-05 46.391C16.4301 69.8159 46.5272 72.2223 60.1672 71.0427C64.9599 59.1817 68.6295 33.1366 44.966 23.8451Z" fill="#30235B"/>
</svg>
