<svg width="58" height="32" viewBox="0 0 58 32" fill="none" xmlns="http://www.w3.org/2000/svg">
<path fill-rule="evenodd" clip-rule="evenodd" d="M33.3435 7.50414C43.761 -2.11953 53.6408 -0.474232 57.2785 1.55138C59.3835 7.12533 57.2785 23.4135 45.66 24.8575C36.3653 26.0127 33.1798 18.8266 32.7489 15.0892C30.9822 13.6622 29.8087 14.8923 29.4428 15.6857C29.7483 26.0727 21.398 33.0992 12.4366 31.4699C5.26757 30.1664 2.14664 23.0025 1.48231 19.5835H0V13.5058C9.33538 4.36491 22.2328 6.60545 27.5145 8.86833C28.9035 7.77698 31.9792 7.50414 33.3435 7.50414ZM53.7866 4.54616C46.5841 2.3199 40.0029 6.13434 37.0245 8.78558C31.6089 13.9565 38.7219 26.6246 48.6601 21.3275C54.6113 18.1554 55.0689 8.33843 53.7866 4.54616ZM13.0591 11.3244C16.9922 10.0444 25.012 9.18794 25.6265 16.0022C26.3945 24.52 18.6447 30.8037 11.8723 27.4524C6.96878 25.026 4.96018 20.0517 4.96018 16.9098C4.96018 14.3964 10.3595 12.1389 13.0591 11.3244Z" fill="#111111"/>
</svg>
